<svg id="Calque_1" data-name="Calque 1" xmlns="http://www.w3.org/2000/svg" viewBox="0 0 141.24 167.51"><path d="M19.11,156.82l6.17,10.31H22.92l-5.67-9.95H12.11v9.95H10.16V145h7.18c4.46,0,6.49,2,6.49,6C23.83,154.58,22.18,156.47,19.11,156.82Zm-1.77-10.1H12.11v8.86h5.05c3.22,0,4.66-1.3,4.66-4.52S20.44,146.72,17.34,146.72Z" style="fill:#fff"/><path d="M38.71,164.68l-.09,0a6.12,6.12,0,0,1-5.43,2.75c-3.16,0-5.34-1.56-5.34-5.46,0-3.31,2-5.2,6.28-5.2a13,13,0,0,1,4.34.77v-2.16c0-3.3-1.38-4.37-4.45-4.37a10.56,10.56,0,0,0-4.93,1.1l-.21-1.57a12.55,12.55,0,0,1,5.43-1.15c4.25,0,6,1.74,6,6.26v11.52H38.92Zm-.24-5.76a8.23,8.23,0,0,0-4.07-.83c-3.37,0-4.84,1.39-4.84,3.81,0,2.95,1.77,4,4.1,4,2.54,0,4.81-1.78,4.81-3.46Z" style="fill:#fff"/><path d="M47.27,146.13c-.88,0-1.39-.29-1.39-1.24,0-.79.51-1.24,1.39-1.24s1.39.45,1.39,1.24S48.16,146.13,47.27,146.13Zm-.91,21V149.79l1.8-.14v17.48Z" style="fill:#fff"/><path d="M65.75,167.13V155.37c0-3-1.65-4.25-4.6-4.25a5.87,5.87,0,0,0-4.76,2.36v13.65H54.62v-17.4l1.27-.11.33,2.09h.09a6.86,6.86,0,0,1,5.28-2.3c3.69,0,5.94,1.92,5.94,5.93v11.79Z" style="fill:#fff"/><path d="M80,167.45a6.55,6.55,0,0,1-5.37-2.39l-.09,0-.35,2H73V143.59l1.8-.11v5.78l0,2.36.06,0a6.89,6.89,0,0,1,5.37-2.27c4.07,0,6.67,2.24,6.67,9S84.35,167.45,80,167.45Zm-.26-16.39a5.74,5.74,0,0,0-4.93,2.45v9.87a5.59,5.59,0,0,0,5,2.53c3.1,0,5.25-1.56,5.25-7.49S83.05,151.06,79.72,151.06Z" style="fill:#fff"/><path d="M97.58,167.51c-5.08,0-7.35-2.54-7.35-9.07s2.3-9,7.35-9,7.26,2.57,7.26,9S102.69,167.51,97.58,167.51Zm0-1.57c3.9,0,5.4-2.06,5.4-7.5s-1.5-7.44-5.4-7.44-5.49,2-5.49,7.44S93.65,165.94,97.58,165.94Z" style="fill:#fff"/><path d="M120,149.71l3.63,13.75.59,2.31h.09l.47-2.34L128,149.71h1.8l-4.4,17.42h-2.27l-3.52-13.2-.56-2.34H119l-.59,2.34-3.6,13.2h-2.21L108,149.71h1.83l3.31,13.67.53,2.33h.09l.56-2.3,3.66-13.7Z" style="fill:#fff"/><path d="M133.46,144V149H133V144h-1.73v-.47h3.95V144Z" style="fill:#fff"/><path d="M136.73,143.48l1.75,4.3.22.55h0l.21-.55,1.75-4.3h.56V149h-.43v-4.74h0l-.21.56L138.88,149h-.37l-1.7-4.16-.22-.56h0V149h-.43v-5.53Z" style="fill:#fff"/><rect width="139.98" height="139.98" rx="28" style="fill:#fff"/><path d="M95.33,106.71A6.72,6.72,0,0,1,90,104.12L61.56,73.46a6.93,6.93,0,0,1-1.41-5.69,6.73,6.73,0,0,1,6.58-5.34H79.62c6.89,0,9.33-4.32,9.33-8s-2.45-7.68-9.33-7.67H51.05v53a6.86,6.86,0,0,1-6.59,6.95A6.76,6.76,0,0,1,37.58,100V40a6.73,6.73,0,0,1,6.73-6.73h35.3c15,0,22.78,10.62,22.79,21.11a21.14,21.14,0,0,1-5.94,14.81,22.45,22.45,0,0,1-15.91,6.65l20.07,20a6.74,6.74,0,0,1-5.29,10.89Z" style="fill:#6d3e90"/><path d="M111.8,21.7a6.49,6.49,0,0,1,6.48,6.46v21.2c2,.27,4,.56,5.91,1,1.27.25,2.54.45,3.79.75l1.83.44V28.16a18,18,0,0,0-18-18v0l-50.1,0A50.75,50.75,0,0,0,55.1,21.7Z" style="fill:#008fd4"/><path d="M61.69,10.17H28.15a18,18,0,0,0-18,18V85.42a117.06,117.06,0,0,1,10.78-9.91l.75-.58V28.19a6.49,6.49,0,0,1,6.46-6.48h27A50.75,50.75,0,0,1,61.69,10.17Z" style="fill:#2da736"/><path d="M111.83,118.3H74.64a47.6,47.6,0,0,0,7,11.53h30.18a18,18,0,0,0,18-18V56.65q-5.66-1.26-11.53-2v57.13A6.48,6.48,0,0,1,111.83,118.3Z" style="fill:#e5007c"/><path d="M74.64,118.3H28.18a6.47,6.47,0,0,1-6.48-6.46V88.67a124,124,0,0,0-11.52,13.09v10.08a18,18,0,0,0,18,18H81.65A47.6,47.6,0,0,1,74.64,118.3Z" style="fill:#ea612b"/></svg>